:FULLY-SPECIFIED
:FORCE-ALL-JOINTS-BE-3DOF
:DEGREES
815
root 1.94924 16.6882 22.5476 5.00524 1.30639 -6.6675
lfemur -38.721 -0.38703 1.09309
ltibia 20.9762 -0 0
lfoot -9.59317 9.25213 0.128135
ltoes 15.7946 -0 0
rfemur 1.24779 5.35732 22.3276
rtibia 21.7327 -0 0
rfoot -22.4763 -11.2983 -0.00864557
rtoes -21.7591 0 0
lowerback 0.820642 6.1243 5.76068
upperback -0.100165 8.22023 -0.336145
thorax 0.296728 4.11643 -3.51205
lowerneck -5.82803 -1.71739 2.84602
upperneck -0.909593 -2.47787 1.45527
head 0.662913 -1.22325 -0.0779549
lclavicle 7.70291e-15 -1.07344e-14 0
lhumerus -53.0519 -7.24413 91.6279
lradius 54.0322 -0 0
lwrist 20.1327 0 0
lhand -10.1851 5.21501 -0.00871058
lfingers 7.12502 -0 0
lthumb 15.8061 34.6001 -0.00570025
rclavicle 7.70291e-15 -1.07344e-14 0
rhumerus -30.8516 45.8904 -111.86
rradius 67.8803 -0 0
rwrist -1.2408 0 0
rhand -10.2749 -25.092 0.0556022
rfingers 7.12502 -0 0
rthumb 15.7179 -54.4525 0.0572539
816
root 1.98895 16.6785 22.7077 4.99261 0.232642 -6.86019
lfemur -38.4124 -0.33603 1.53181
ltibia 19.6918 -0 0
lfoot -8.9977 9.98964 0.0599067
ltoes 15.797 -0 0
rfemur 1.96492 5.53701 22.2999
rtibia 21.2814 -0 0
rfoot -22.1957 -11.1725 -0.00604757
rtoes -22.4536 0 0
lowerback 0.684703 6.21537 5.8361
upperback -0.12766 8.33415 -0.256081
thorax 0.352715 4.17409 -3.45655
lowerneck -5.8038 -1.64569 2.94938
upperneck -0.740077 -2.39235 1.40352
head 0.711129 -1.17858 -0.110497
lclavicle 7.70291e-15 -1.07344e-14 0
lhumerus -53.0386 -7.10567 91.5016
lradius 53.4918 -0 0
lwrist 19.7297 0 0
lhand -9.99351 5.26903 -0.00312999
lfingers 7.12502 -0 0
lthumb 15.9902 34.634 -0.00162623
rclavicle 7.70291e-15 -1.07344e-14 0
rhumerus -30.5882 45.7089 -111.208
rradius 67.6325 -0 0
rwrist -1.4458 0 0
rhand -9.85964 -24.695 0.0264787
rfingers 7.12502 -0 0
rthumb 16.1184 -54.0353 0.027109
817
root 2.03115 16.6664 22.8712 4.93696 -0.75725 352.989
lfemur -38.1174 -0.322086 1.83581
ltibia 18.7988 0 0
lfoot -8.42232 10.4617 0
ltoes 15.6653 0 0
rfemur 2.60588 5.58915 22.1904
rtibia 21.0611 0 0
rfoot -21.8814 -11.0103 0
rtoes -23.2307 0 0
lowerback 0.548969 6.29273 5.88725
upperback -0.159273 8.42926 -0.177758
thorax 0.39921 4.22205 -3.38998
lowerneck -5.78068 -1.58872 3.04583
upperneck -0.537971 -2.32681 1.3565
head 0.770183 -1.14307 -0.141404
lclavicle -1.31496e-13 -7.95139e-16 0
lhumerus -53.0599 -6.93873 91.3475
lradius 53.0275 0 0
lwrist 19.3926 0 0
lhand -9.73271 5.33909 0
lfingers 7.12502 0 0
lthumb 16.241 34.6788 0
rclavicle -1.31496e-13 -7.95139e-16 0
rhumerus -30.3656 45.4422 -110.478
rradius 67.3777 0 0
rwrist -1.57836 0 0
rhand -9.5887 -24.3245 0
rfingers 7.12502 0 0
rthumb 16.3797 -773.653 0
818
root 2.0767 16.6506 23.0407 4.84103 -1.66941 -7.13742
lfemur -37.8257 -0.344604 2.03504
ltibia 18.2744 -0 0
lfoot -7.82971 10.7296 -0.0526624
ltoes 15.3799 -0 0
rfemur 3.27242 5.46762 22.0078
rtibia 20.9724 -0 0
rfoot -21.5901 -10.865 -0.0200219
rtoes -24.2314 0 0
lowerback 0.392538 6.3665 5.92357
upperback -0.202266 8.5178 -0.0986231
thorax 0.441388 4.26656 -3.31309
lowerneck -5.75534 -1.5454 3.14118
upperneck -0.293619 -2.28036 1.31328
head 0.842461 -1.11604 -0.171816
lclavicle -1.31496e-13 -7.95139e-16 0
lhumerus -53.1333 -6.72127 91.163
lradius 52.6234 -0 0
lwrist 19.085 0 0
lhand -9.39797 5.42525 0.00223512
lfingers 7.12502 -0 0
lthumb 16.5629 34.733 0.000545969
rclavicle -1.31496e-13 -7.95139e-16 0
rhumerus -30.1864 45.1107 -109.681
rradius 67.1362 -0 0
rwrist -1.65227 0 0
rhand -9.42865 -23.9223 -0.029199
rfingers 7.12502 -0 0
rthumb 16.5341 -53.2474 -0.0292842
819
root 2.12609 16.6304 23.2181 4.71211 -2.51165 -7.25942
lfemur -37.5226 -0.39762 2.17246
ltibia 18.0402 -0 0
lfoot -7.188 10.8865 -0.103092
ltoes 14.9447 -0 0
rfemur 4.05267 5.15281 21.7673
rtibia 20.9126 -0 0
rfoot -21.3641 -10.7846 -0.0878374
rtoes -25.5553 0 0
lowerback 0.198789 6.44661 5.95455
upperback -0.261723 8.61203 -0.0167234
thorax 0.484711 4.31386 -3.22756
lowerneck -5.72493 -1.5134 3.24082
upperneck -0.00315566 -2.25018 1.27277
head 0.928609 -1.09602 -0.202777
lclavicle -1.31496e-13 -7.95139e-16 0
lhumerus -53.2677 -6.44166 90.9499
lradius 52.2565 -0 0
lwrist 18.7653 0 0
lhand -8.99861 5.52308 0.00534155
lfingers 7.12502 -0 0
lthumb 16.9468 34.792 0.00165464
rclavicle -1.31496e-13 -7.95139e-16 0
rhumerus -30.0451 44.7409 -108.834
rradius 66.925 -0 0
rwrist -1.68853 0 0
rhand -9.33405 -23.4368 -0.0667901
rfingers 7.12502 -0 0
rthumb 16.6255 -52.7658 -0.0663613
820
root 2.1789 16.6064 23.4021 4.55132 -3.28372 -7.37366
lfemur -37.208 -0.476858 2.24913
ltibia 18.0659 -0 0
lfoot -6.50885 10.9388 -0.149831
ltoes 14.3792 -0 0
rfemur 4.91528 4.67397 21.4672
rtibia 20.9023 -0 0
rfoot -21.1812 -10.7535 -0.191832
rtoes -27.1437 0 0
lowerback -0.0247961 6.53053 5.97801
upperback -0.334614 8.70915 0.0669496
thorax 0.528173 4.36249 -3.13383
lowerneck -5.69052 -1.49216 3.34313
upperneck 0.327549 -2.23525 1.23497
head 1.02698 -1.08265 -0.233974
lclavicle -1.31496e-13 -7.95139e-16 0
lhumerus -53.4539 -6.11189 90.7112
lradius 51.926 -0 0
lwrist 18.4383 0 0
lhand -8.54461 5.62973 0.00882147
lfingers 7.12502 -0 0
lthumb 17.3833 34.854 0.00303722
rclavicle -1.31496e-13 -7.95139e-16 0
rhumerus -29.9392 44.3321 -107.937
rradius 66.7377 -0 0
rwrist -1.68857 0 0
rhand -9.30508 -22.8852 -0.110217
rfingers 7.12502 -0 0
rthumb 16.6537 -52.2247 -0.108761
821
root 2.23472 16.5793 23.5917 4.35969 -3.98534 -7.47695
lfemur -36.8818 -0.578016 2.26611
ltibia 18.3214 -0 0
lfoot -5.80399 10.8929 -0.191318
ltoes 13.7028 -0 0
rfemur 5.82922 4.06034 21.1061
rtibia 20.962 -0 0
rfoot -21.0191 -10.7557 -0.320665
rtoes -28.9377 0 0
lowerback -0.270738 6.61569 5.99181
upperback -0.417918 8.80635 0.151417
thorax 0.57076 4.41101 -3.03235
lowerneck -5.65323 -1.48114 3.44652
upperneck 0.692625 -2.23458 1.19989
head 1.13594 -1.07557 -0.265099
lclavicle -1.31496e-13 -7.95139e-16 0
lhumerus -53.6826 -5.74394 90.45
lradius 51.6311 -0 0
lwrist 18.1089 0 0
lhand -8.04594 5.74231 0.0122297
lfingers 7.12502 -0 0
lthumb 17.8627 34.9172 0.00444285
rclavicle -1.31496e-13 -7.95139e-16 0
rhumerus -29.8661 43.8837 -106.992
rradius 66.5674 -0 0
rwrist -1.6538 0 0
rhand -9.34181 -22.2851 -0.156658
rfingers 7.12502 -0 0
rthumb 16.6185 -51.6407 -0.15378
822
root 2.29311 16.5497 23.7858 4.13825 -4.6162 -7.56623
lfemur -36.5437 -0.696774 2.22452
ltibia 18.7763 -0 0
lfoot -5.08516 10.7552 -0.226011
ltoes 12.9349 -0 0
rfemur 6.76373 3.34092 20.6839
rtibia 21.1125 -0 0
rfoot -20.8557 -10.7756 -0.463145
rtoes -30.8786 0 0
lowerback -0.531565 6.69951 5.99387
upperback -0.508622 8.9008 0.235717
thorax 0.611454 4.45796 -2.92358
lowerneck -5.61414 -1.47977 3.54937
upperneck 1.0862 -2.24718 1.16749
head 1.25384 -1.07444 -0.295843
lclavicle -1.31496e-13 -7.95139e-16 0
lhumerus -53.9444 -5.34972 90.1693
lradius 51.3711 -0 0
lwrist 17.782 0 0
lhand -7.51259 5.85797 0.0151928
lfingers 7.12502 -0 0
lthumb 18.3753 34.9796 0.00566807
rclavicle -1.31496e-13 -7.95139e-16 0
rhumerus -29.8233 43.3951 -106
rradius 66.4076 -0 0
rwrist -1.58564 0 0
rhand -9.44429 -21.6539 -0.203127
rfingers 7.12502 -0 0
rthumb 16.5201 -51.0303 -0.198574
823
root 2.35365 16.5182 23.9832 3.88799 -5.17593 -7.63857
lfemur -36.1933 -0.828784 2.1255
ltibia 19.4005 -0 0
lfoot -4.36413 10.5321 -0.252499
ltoes 12.0951 -0 0
rfemur 7.68814 2.54432 20.2019
rtibia 21.3744 -0 0
rfoot -20.6686 -10.7972 -0.608165
rtoes -32.9075 0 0
lowerback -0.799802 6.77936 5.98213
upperback -0.603721 8.98968 0.318906
thorax 0.649231 4.50189 -2.80796
lowerneck -5.57436 -1.48749 3.65007
upperneck 1.50239 -2.27206 1.13774
head 1.37902 -1.07892 -0.325903
lclavicle -1.31496e-13 -7.95139e-16 0
lhumerus -54.2301 -4.94107 89.8726
lradius 51.1452 -0 0
lwrist 17.4625 0 0
lhand -6.95455 5.97381 0.0174227
lfingers 7.12502 -0 0
lthumb 18.9117 35.0395 0.00656302
rclavicle -1.31496e-13 -7.95139e-16 0
rhumerus -29.8085 42.8658 -104.965
rradius 66.2516 -0 0
rwrist -1.48552 0 0
rhand -9.61246 -21.0091 -0.246575
rfingers 7.12502 -0 0
rthumb 16.3583 -50.4102 -0.240253
824
root 2.41591 16.4856 24.1829 3.60992 -5.66413 -7.69118
lfemur -35.8303 -0.969681 1.97023
ltibia 20.1638 -0 0
lfoot -3.65275 10.2301 -0.269593
ltoes 11.2026 -0 0
rfemur 8.57166 1.6985 19.6631
rtibia 21.7682 -0 0
rfoot -20.4359 -10.8048 -0.744703
rtoes -34.9658 0 0
lowerback -1.06797 6.85261 5.95458
upperback -0.700221 9.07015 0.400056
thorax 0.683057 4.54137 -2.68596
lowerneck -5.53498 -1.50371 3.747
upperneck 1.93532 -2.30825 1.11062
head 1.50986 -1.08866 -0.354974
lclavicle -1.31496e-13 -7.95139e-16 0
lhumerus -54.53 -4.52971 89.5633
lradius 50.9526 -0 0
lwrist 17.1551 0 0
lhand -6.3818 6.08695 0.018726
lfingers 7.12502 -0 0
lthumb 19.4622 35.095 0.00703477
rclavicle -1.31496e-13 -7.95139e-16 0
rhumerus -29.8195 42.295 -103.887
rradius 66.0927 -0 0
rwrist -1.35484 0 0
rhand -9.84618 -20.368 -0.283987
rfingers 7.12502 -0 0
rthumb 16.1333 -49.7969 -0.275968
825
root 2.47948 16.4524 24.3837 3.3051 -6.08033 -7.72138
lfemur -35.4545 -1.11507 1.75993
ltibia 21.036 -0 0
lfoot -2.96287 9.8558 -0.276414
ltoes 10.2769 -0 0
rfemur 9.38313 0.830627 19.0723
rtibia 22.3147 -0 0
rfoot -20.1354 -10.7827 -0.861883
rtoes -36.9945 0 0
lowerback -1.3286 6.91659 5.90927
upperback -0.795132 9.13933 0.478261
thorax 0.71189 4.57496 -2.55803
lowerneck -5.49709 -1.52787 3.83857
upperneck 2.37911 -2.35479 1.08611
head 1.64469 -1.10333 -0.382751
lclavicle -1.31496e-13 -7.95139e-16 0
lhumerus -54.8344 -4.12722 89.2451
lradius 50.7925 -0 0
lwrist 16.8649 0 0
lhand -5.80433 6.19449 0.0190077
lfingers 7.12502 -0 0
lthumb 20.0172 35.1444 0.00704748
rclavicle -1.31496e-13 -7.95139e-16 0
rhumerus -29.8542 41.6821 -102.768
rradius 65.9243 -0 0
rwrist -1.19502 0 0
rhand -10.1452 -19.7481 -0.312491
rfingers 7.12502 -0 0
rthumb 15.8454 -49.2071 -0.303011
